<svg width="16" height="16" viewBox="0 0 16 16" fill="none" xmlns="http://www.w3.org/2000/svg">
<path d="M12 6.13329C12 7.09626 12 8.05922 12 9.02218C12 9.76759 12.185 10.3527 12.5548 10.7776C12.6974 10.9413 12.5859 11.3333 12.3688 11.3333H3.63126C3.41421 11.3333 3.30272 10.9413 3.44523 10.7776C3.8151 10.3527 4.00004 9.76759 4.00004 9.02218C4.00004 8.05922 4.00004 7.09626 4.00004 6.13329C4.00004 4.21871 5.7909 2.66663 8.00004 2.66663C10.2092 2.66663 12 4.21871 12 6.13329Z" stroke="white" stroke-linecap="round" stroke-linejoin="round"/>
<path d="M6.33329 11.3334C6.33329 12.4379 7.07948 13.3334 7.99996 13.3334C8.92043 13.3334 9.66663 12.4379 9.66663 11.3334" stroke="white" stroke-linecap="round" stroke-linejoin="round"/>
</svg>
