<svg width="10" height="10" viewBox="0 0 10 10" fill="none" xmlns="http://www.w3.org/2000/svg">
<g clip-path="url(#clip0_140_690)">
<path d="M2.91667 8.74999H7.08333M2.5 0.833328H7.5V4.58333C7.5 5.96404 6.38071 7.08333 5 7.08333C3.61929 7.08333 2.5 5.96404 2.5 4.58333V0.833328Z" stroke="white" stroke-linecap="round" stroke-linejoin="round"/>
<path d="M5 7.08333V8.75" stroke="white" stroke-linecap="round" stroke-linejoin="round"/>
<path d="M2.49992 2.08333V4.58333H2.08325C1.3929 4.58333 0.833252 4.02368 0.833252 3.33333C0.833252 2.64297 1.3929 2.08333 2.08325 2.08333H2.49992ZM7.49992 4.58333V2.08333H7.91659C8.60694 2.08333 9.16659 2.64297 9.16659 3.33333C9.16659 4.02368 8.60694 4.58333 7.91659 4.58333H7.49992Z" stroke="white" stroke-linecap="round" stroke-linejoin="round"/>
</g>
<defs>
<clipPath id="clip0_140_690">
<rect width="10" height="10" fill="white"/>
</clipPath>
</defs>
</svg>
