<svg width="10" height="10" viewBox="0 0 10 10" fill="none" xmlns="http://www.w3.org/2000/svg">
<g clip-path="url(#clip0_140_706)">
<path d="M5.93101 5.76439C5.90052 5.8406 5.84013 5.90099 5.76391 5.93148L3.58706 6.80241C3.34215 6.9004 3.0991 6.65735 3.19709 6.41244L4.06801 4.23558C4.0985 4.15937 4.1589 4.09898 4.23511 4.06849L6.41197 3.19756C6.65687 3.09958 6.89992 3.34262 6.80194 3.58753L5.93101 5.76439Z" stroke="white" stroke-width="0.9" stroke-linecap="round" stroke-linejoin="round"/>
<path d="M5.00016 9.16666C7.30135 9.16666 9.16683 7.30118 9.16683 5C9.16683 2.69881 7.30135 0.833328 5.00016 0.833328C2.69898 0.833328 0.833496 2.69881 0.833496 5C0.833496 7.30118 2.69898 9.16666 5.00016 9.16666Z" stroke="white" stroke-linecap="round" stroke-linejoin="round"/>
</g>
<defs>
<clipPath id="clip0_140_706">
<rect width="10" height="10" fill="white"/>
</clipPath>
</defs>
</svg>
