<svg width="11" height="11" viewBox="0 0 11 11" fill="none" xmlns="http://www.w3.org/2000/svg">
<path d="M0.458496 8.25C0.458496 7.21875 1.8335 7.21875 2.521 6.53125C2.86475 6.1875 1.8335 6.1875 1.8335 4.46875C1.8335 3.32303 2.29171 2.75 3.2085 2.75C4.12528 2.75 4.5835 3.32303 4.5835 4.46875C4.5835 6.1875 3.55225 6.1875 3.896 6.53125C3.896 6.53125 4.98646 6.85722 5.50016 7.33333C5.82835 7.63751 6.18766 8.25 6.18766 8.25M5.86308 7.20806C6.08869 7.12629 6.27359 7.05068 6.41779 6.98123C6.67018 6.85967 6.91369 6.72189 7.10433 6.53125C7.44808 6.1875 6.41683 6.1875 6.41683 4.46875C6.41683 3.32303 6.87505 2.75 7.79183 2.75C8.70861 2.75 9.16683 3.32303 9.16683 4.46875C9.16683 6.1875 8.13558 6.1875 8.47933 6.53125C9.16683 7.21875 10.5418 7.21875 10.5418 8.25" stroke="white" stroke-width="0.7" stroke-linecap="round" stroke-linejoin="round"/>
<path d="M5.5 7.3333C5.66788 7.27663 5.78885 7.23487 5.86291 7.20802" stroke="white" stroke-width="0.7" stroke-linecap="round" stroke-linejoin="round"/>
</svg>
